<?xml version="1.0" standalone="no"?>
<!DOCTYPE svg PUBLIC "-//W3C//DTD SVG 20010904//EN"
 "http://www.w3.org/TR/2001/REC-SVG-20010904/DTD/svg10.dtd">
<svg version="1.0" xmlns="http://www.w3.org/2000/svg"
 width="137.000000pt" height="33.000000pt" viewBox="0 0 137.000000 33.000000"
 preserveAspectRatio="xMidYMid meet">

<g transform="translate(0.000000,33.000000) scale(0.100000,-0.100000)"
fill="#000000" stroke="none">
<path d="M506 242 c7 -4 14 -16 17 -27 4 -15 5 -14 6 8 1 20 -4 27 -16 27 -12
0 -14 -3 -7 -8z"/>
<path d="M276 227 c3 -10 9 -15 12 -12 3 3 0 11 -7 18 -10 9 -11 8 -5 -6z"/>
<path d="M147 205 c-16 -12 -16 -13 5 -18 27 -7 32 -3 21 16 -7 13 -11 13 -26
2z"/>
<path d="M466 189 c-9 -18 -16 -42 -16 -53 1 -12 9 0 20 28 22 57 20 73 -4 25z"/>
<path d="M217 194 c-4 -4 -7 -19 -7 -33 l1 -26 13 24 13 23 22 -28 23 -29 -19
34 c-19 35 -34 47 -46 35z"/>
<path d="M815 193 c11 -3 26 -12 33 -21 6 -9 12 -11 12 -6 0 17 -23 34 -44 33
-21 -1 -21 -1 -1 -6z"/>
<path d="M980 180 c-12 -22 -5 -44 10 -35 5 3 6 13 3 21 -3 9 0 20 8 25 9 6
10 9 2 9 -7 0 -17 -9 -23 -20z"/>
<path d="M100 170 c-13 -8 -13 -10 1 -10 9 0 19 -7 23 -15 3 -8 11 -15 18 -15
9 0 9 3 2 8 -6 4 -15 15 -20 24 -7 12 -14 14 -24 8z"/>
<path d="M490 177 c0 -11 30 -67 35 -67 6 0 -16 52 -27 65 -4 5 -8 6 -8 2z"/>
<path d="M605 160 c-15 -16 -16 -23 -6 -33 10 -9 11 -9 6 4 -8 21 19 43 45 36
11 -3 18 -1 14 4 -9 16 -40 10 -59 -11z"/>
<path d="M796 164 c-4 -9 -4 -19 -1 -22 2 -3 7 3 11 12 4 9 4 19 1 22 -2 3 -7
-3 -11 -12z"/>
<path d="M1146 151 c-10 -11 -16 -28 -13 -38 4 -15 5 -14 6 4 1 25 36 50 46
33 3 -5 3 -14 0 -20 -3 -6 1 -7 9 -4 19 7 20 16 4 32 -17 17 -32 15 -52 -7z"/>
<path d="M1053 136 c7 -15 14 -20 18 -14 4 6 1 17 -6 25 -20 20 -24 16 -12
-11z"/>
<path d="M1304 118 c-16 -18 -20 -26 -9 -18 31 23 48 41 43 45 -2 3 -18 -10
-34 -27z"/>
<path d="M540 125 c0 -8 2 -15 4 -15 2 0 6 7 10 15 3 8 1 15 -4 15 -6 0 -10
-7 -10 -15z"/>
<path d="M900 131 c0 -10 29 -36 34 -30 1 2 -6 12 -16 22 -10 9 -18 13 -18 8z"/>
<path d="M781 113 c0 -12 -4 -30 -7 -40 -5 -17 -5 -17 6 0 6 10 9 28 7 40 -4
22 -4 22 -6 0z"/>
<path d="M1210 116 c0 -2 8 -10 18 -17 15 -13 16 -12 3 4 -13 16 -21 21 -21
13z"/>
</g>
</svg>
